<?xml version="1.0" encoding="utf-8"?>
<!-- Generator: Adobe Illustrator 16.0.0, SVG Export Plug-In . SVG Version: 6.00 Build 0)  -->
<!DOCTYPE svg PUBLIC "-//W3C//DTD SVG 1.1//EN" "http://www.w3.org/Graphics/SVG/1.1/DTD/svg11.dtd">
<svg version="1.1" id="Layer_1" xmlns="http://www.w3.org/2000/svg" xmlns:xlink="http://www.w3.org/1999/xlink" x="0px" y="0px"
	 width="200px" height="200px" viewBox="0 0 200 200" enable-background="new 0 0 200 200" xml:space="preserve">
<path fill="#382823" d="M184.053,36.498c-3.727,1.178-6.617,4.297-10.496,5.133c-7.949,1.674-6.578,4.031-14.717,2.359
	c-4.184-0.836-7.682-3.195-11.371-5.248c-12.967-7.225-32.553-6.578-42.25,5.932c-2.813,3.652-5.322,10.078-5.322,14.756
	c0-4.717-2.512-11.104-5.363-14.756c-9.66-12.51-29.244-13.195-42.213-5.932c-3.688,2.053-7.186,4.373-11.369,5.248
	c-8.139,1.635-6.77-0.723-14.717-2.396c-3.916-0.799-6.809-3.918-10.496-5.096c4.486,3.119,4.602,12.133,5.096,16.998
	c1.064,10.307-2.318,20.459-1.369,30.729c0.836,8.785,6.846,14.83,13.082,20.383c6.238,5.59,10.344,13.689,17.873,17.797
	c6.199,3.346,12.512,6.846,19.775,5.781c6.807-1.027,12.969-5.592,18.027-9.965c1.975-1.711,3.764-3.613,5.703-5.361
	c0.189-0.189,5.971-4.221,5.971-3.271c0-0.949,5.74,3.082,5.932,3.271c1.939,1.748,3.727,3.65,5.705,5.361
	c5.094,4.373,11.256,8.938,18.023,9.965c7.264,1.064,13.615-2.436,19.775-5.781c7.568-4.107,11.637-12.207,17.873-17.797
	c6.236-5.553,12.285-11.598,13.084-20.383c0.986-10.27-2.398-20.422-1.371-30.689C179.414,48.631,179.564,39.617,184.053,36.498z
	 M87.879,89.055c-1.826,3.193-8.139,3.08-11.066,3.041c-3.842,0-7.721-0.418-11.523-0.799c-8.709-0.875-16.619-3.346-23.768-8.48
	c-2.129-1.521-7.072-4.602-7.148-7.566c-0.076-3.424,5.398-5.477,7.947-6.465c3.613-1.369,7.492-2.168,11.295-2.664
	c9.697-1.252,18.33,3.652,25.479,9.699c3.156,2.66,10.078,6.996,9.242,11.941C88.26,88.256,88.107,88.674,87.879,89.055z
	 M158.23,82.816c-7.148,5.135-15.02,7.605-23.729,8.48c-3.842,0.381-7.682,0.799-11.523,0.799c-2.965,0.039-9.24,0.152-11.104-3.041
	c-0.189-0.381-0.342-0.799-0.457-1.293c-0.836-4.945,6.084-9.281,9.24-11.941c7.15-6.047,15.783-10.951,25.48-9.699
	c3.84,0.496,7.682,1.295,11.293,2.664c2.549,0.988,8.023,3.041,7.947,6.465C165.342,78.215,160.361,81.295,158.23,82.816z"/>
<path fill="none" stroke="#382823" stroke-width="5" stroke-miterlimit="10" d="M176.58,75.219
	c-2.035,54.141,3.244,70.732,7.682,90.697"/>
</svg>
