<?xml version="1.0" encoding="utf-8"?>
<!-- Generator: Adobe Illustrator 16.0.0, SVG Export Plug-In . SVG Version: 6.00 Build 0)  -->
<!DOCTYPE svg PUBLIC "-//W3C//DTD SVG 1.1//EN" "http://www.w3.org/Graphics/SVG/1.1/DTD/svg11.dtd">
<svg version="1.1" id="Layer_1" xmlns="http://www.w3.org/2000/svg" xmlns:xlink="http://www.w3.org/1999/xlink" x="0px" y="0px"
	 width="200px" height="200px" viewBox="0 0 200 200" enable-background="new 0 0 200 200" xml:space="preserve">
<path fill="#FFFFFF" stroke="#382722" stroke-width="5" stroke-miterlimit="10" d="M178.562,104.396
	c0.29,1.569,0.421,3.22,0.421,4.89c0,4.18-0.9,8.36-2.721,12.13c-0.63,1.311-1.33,2.53-2.12,3.66c0.53,1.23,0.83,2.59,0.83,4.021
	c0,4.72-3.22,9.01-7.59,10.13c0.01,0.11,0-0.11,0,0c0,5.59-4.54,10.12-10.13,10.12c-0.96,0-1.88-0.131-2.76-0.381
	c-0.181,4.53,1.68,6.921,2.76,12.23c0.77,3.45-10.25,9.25-12.5,2c-6.25-18.5-22-10.82-22.01-24.17v-0.01
	c-1.44-0.2-2.7-0.641-3.62-1.48c-5.23-0.38-9.91-3.06-13.351-7.229c-2.109,0.85-4.369,1.33-6.72,1.33c-4.51,0-8.68-1.71-12.04-4.631
	c-0.829,0.16-1.68,0.261-2.53,0.261c-7.68,0-13.959-7.141-14.39-16.101c-4.03-0.45-7.69-2.239-10.68-5.02
	c-2.31,1.71-5.021,2.68-7.92,2.68c-2.7,0-5.23-0.84-7.421-2.33c-1.979,1.91-4.489,3.04-7.219,3.04c-3.341,0-6.32-1.66-8.4-4.34
	c-5.21-2.33-9.381-7.95-8.96-14.811c0.45-7.469,4.909-11.719,9.92-14.939c0.8-4.13,2.5-7.87,4.819-10.88
	c1.41-9.88,9.391-16.24,18.101-18.521c2.31-0.619,4.521-0.93,6.729-1.09c3.75-5.31,9.381-8.68,15.7-8.68c2.61,0,5.11,0.57,7.4,1.63
	c11.16-6.14,24.31-6.069,35.47,0c0.69,0.37,1.34,0.729,1.98,1.09c1.59-0.5,3.25-0.739,4.96-0.739c5.31,0,10.17,2.39,13.8,6.319
	c11.43,0.91,25.33,6.32,27.17,19.99c3.22,3.271,5.57,7.72,6.56,12.81c1.44,1.15,2.61,2.131,2.841,2.42
	c2.72,3.36,4.689,7.771,5.359,12.381C180.922,96.506,180.302,100.586,178.562,104.396z"/>
<path fill="none" stroke="#382722" stroke-width="3" stroke-miterlimit="10" d="M29.412,75.446
	c16.759,13.074,18.964-13.965,44.651-2.707"/>
<path fill="none" stroke="#382722" stroke-width="3" stroke-miterlimit="10" d="M59.412,106.146c0-8.994-6.747-17.626-15.747-13.533
	"/>
<path fill="none" stroke="#382722" stroke-width="3" stroke-miterlimit="10" d="M73.332,49.613c-25.474,25.155,4.667,16.5,11.519,33
	"/>
<path fill="none" stroke="#382722" stroke-width="3" stroke-miterlimit="10" d="M119.612,38.996
	c-30.28,20.284,34.88,35.242-8.939,37.95"/>
<path fill="none" stroke="#382722" stroke-width="3" stroke-miterlimit="10" d="M118.311,63.746
	c13.354-14.133,12.688-1.036,22.532-1.036"/>
<path fill="none" stroke="#382722" stroke-width="3" stroke-miterlimit="10" d="M155.998,94.946
	c-20.333-8.671-20.333,18.334-37.688,3.91"/>
<path fill="none" stroke="#382722" stroke-width="3" stroke-miterlimit="10" d="M85.245,112.28
	c-3.518-4.829,17.753-10.471,14.757,9.459"/>
<path fill="none" stroke="#382722" stroke-width="3" stroke-miterlimit="10" d="M101.638,102.771
	c7.36,3.315,5.027,22.306-14.626,24.235"/>
<line fill="none" stroke="#382722" stroke-width="3" stroke-miterlimit="10" x1="122.742" y1="139.026" x2="122.742" y2="139.017"/>
<line fill="none" stroke="#382722" stroke-width="3" stroke-miterlimit="10" x1="122.752" y1="139.026" x2="122.742" y2="139.026"/>
<path fill="none" stroke="#382722" stroke-width="5" stroke-miterlimit="10" d="M174.142,125.076L174.142,125.076
	c-0.848,5.62-9.749,10.426-13.939,10.426c-0.92,0-1.8-0.13-2.64-0.37l0,0l0,0c-0.998,2.814-9.851,3.58-12.021,3.58
	c-1.71,0-3.31-0.45-4.699-1.221l0,0l0,0c-8.153,4.643-16.604,4.431-18.101,1.525l0,0"/>
<path fill="none" stroke="#382722" stroke-width="3" stroke-miterlimit="10" d="M140.843,137.491c0,4.599,6.825,7.705,7.951,9.955"
	/>
<path fill="none" stroke="#382722" stroke-width="3" stroke-miterlimit="10" d="M82.162,59.28
	c8.674-3.834,6.918-12.749,2.521-22.636"/>
<path fill="none" stroke="#382722" stroke-width="3" stroke-miterlimit="10" d="M157.563,135.132
	c-3.07-8.126,8.103-20.428-8.769-23.729"/>
<path fill="none" stroke="#382722" stroke-width="3" stroke-miterlimit="10" d="M178.562,104.396
	c-11.282-11.207-7.563,8.884-22.563,1.75"/>
<path fill="none" stroke="#382722" stroke-width="3" stroke-miterlimit="10" d="M147.668,80.613
	c20.997,0,3.664-12.667,17.874-16.047"/>
</svg>
