<svg width="24.000005248785218" height="24.000005248785218" xmlns="http://www.w3.org/2000/svg">
 <title/>

 <g>
  <title>background</title>
  <rect height="402" width="582" y="-1" x="-1" fill="none" id="canvas_background"/>
 </g>
 <g>
  <title>Layer 1</title>
  <path d="m23.559999,10.93l-10.499999,-10.5a1.54,1.54 0 0 0 -2.120001,0l-2,2a0.5,0.5 0 0 0 0,0.71l1.8,1.86a0.5,0.5 0 0 0 0.54,0.11a2,2 0 0 1 2.72,1.89a2,2 0 0 1 -0.15,0.74a0.5,0.5 0 0 0 0.11,0.54l1.76,1.72a0.5,0.5 0 0 0 0.54,0.11a2,2 0 1 1 -1.26,1.89a2,2 0 0 1 0.14,-0.71a0.5,0.5 0 0 0 -0.110001,-0.53l-1.679999,-1.690001a0.5,0.5 0 0 0 -0.85,0.35l0,5.28a0.5,0.5 0 0 0 0.3,0.46a2,2 0 1 1 -1.6,0a0.5,0.5 0 0 0 0.3,-0.46l0,-5.42a0.5,0.5 0 0 0 -0.3,-0.46a2,2 0 0 1 -1.059999,-2.559999a0.5,0.5 0 0 0 -0.14,-0.53l-1.81,-1.85a0.5,0.5 0 0 0 -0.71,0l-7,7a1.5,1.5 0 0 0 0,2.12l10.5,10.51a1.5,1.5 0 0 0 2.120001,0l10.5,-10.51a1.5,1.5 0 0 0 0,-2.12l-0.040001,0.05z" fill="#000000" id="svg_1"/>
 </g>
</svg>