<?xml version="1.0" encoding="utf-8"?>
<!-- Generator: Adobe Illustrator 16.0.0, SVG Export Plug-In . SVG Version: 6.00 Build 0)  -->
<!DOCTYPE svg PUBLIC "-//W3C//DTD SVG 1.1//EN" "http://www.w3.org/Graphics/SVG/1.1/DTD/svg11.dtd">
<svg version="1.1" id="Layer_1" xmlns="http://www.w3.org/2000/svg" xmlns:xlink="http://www.w3.org/1999/xlink" x="0px" y="0px"
	 width="200px" height="200px" viewBox="0 0 200 200" enable-background="new 0 0 200 200" xml:space="preserve">
<g>
	<path fill="#224084" d="M100.546,173.094c-40.304,0-73.094-32.79-73.094-73.094c0-40.305,32.79-73.094,73.094-73.094
		c40.305,0,73.095,32.789,73.095,73.094C173.641,140.304,140.851,173.094,100.546,173.094z"/>
	<path fill="#0277BD" d="M100.546,27.406c40.029,0,72.595,32.565,72.595,72.594s-32.565,72.594-72.595,72.594
		c-40.028,0-72.594-32.565-72.594-72.594S60.518,27.406,100.546,27.406 M100.546,26.406c-40.646,0-73.594,32.947-73.594,73.594
		s32.947,73.594,73.594,73.594s73.595-32.947,73.595-73.594S141.192,26.406,100.546,26.406L100.546,26.406z"/>
</g>
<g>
	<path fill="#FBAA19" d="M43.158,148.256c-4.813,6.547-11.909,12.16-22.313,16.379c2.785,2.238,5.75,5.842,7.234,8.625
		c10.15-4.471,17.407-10.289,22.586-16.953C47.95,153.82,45.44,151.129,43.158,148.256z M28.716,118.002h-6.318v10.176h9.331
		C30.474,124.893,29.47,121.492,28.716,118.002z"/>
	<path fill="#FBAA19" d="M173.913,108.877c-0.617,7.072-2.26,13.848-4.746,20.213h8.121v-20.213H173.913z M124.518,171.914
		c0.16,0.502,0.296,0.98,0.388,1.438c17.089,0,21.355-1.553,21.355-10.588v-2.736C139.804,165.137,132.48,169.176,124.518,171.914z
		 M161.957,142.961c-2.121,3.195-4.494,6.205-7.074,9.035h23.319v-9.035H161.957z"/>
</g>
<g>
	<path fill="#FAF291" d="M95.755,123.824H66.272c4.846,17,14.373,29.895,31.29,35.561c-2.382,2.137-5.585,6.57-7.146,9.443
		c-15.768-6.158-25.13-17.492-31.125-33.342c-4.517,13.469-13.387,25.541-31.289,33.424c-1.479-2.791-4.436-6.404-7.228-8.621
		c20.039-8.131,27.759-21.434,30.634-36.465H22.335v-10.182h30.469c0.574-7.311,0.492-14.783,0.574-22.174l13.059,0.82
		c-0.164,0.904-0.904,1.479-2.299,1.725c-0.082,6.322-0.165,12.977-0.74,19.629h32.357V123.824z"/>
	<path fill="#FAF291" d="M178.135,138.607v9.033h-31.945v10.758c0,9.035-4.271,10.596-21.352,10.596
		c-0.574-2.793-2.464-6.898-3.943-9.527c3.369,0.164,7.063,0.246,9.692,0.246c5.091,0,5.501,0,5.501-1.641v-10.432h-31.781v-9.033
		h31.781v-5.666l4.846,0.246c2.135-1.395,4.188-3.039,6.078-4.764h-28.004v-8.541h37.283l1.56-0.492l7.474,4.434
		c-0.328,0.574-1.067,0.988-1.808,1.15c-4.105,4.354-10.265,9.691-16.67,13.633H178.135z M115.063,113.313v11.416h-9.279v-20.203
		h10.842c-1.479-2.791-3.696-5.994-5.751-8.541l8.378-3.695c3.039,3.365,6.487,7.967,7.885,11.252l-2.137,0.984h11.991
		c-1.314-3.201-3.369-7.227-5.339-10.348l8.705-3.201c2.71,3.859,5.666,8.949,6.733,12.482l-2.709,1.066h10.677
		c2.791-3.859,5.666-8.705,7.473-12.564c11.004,3.941,11.252,4.023,11.497,4.189c-0.493,0.736-1.396,0.902-2.382,0.82
		c-1.396,2.299-3.367,5.01-5.419,7.555h11.004v20.203h-9.691v-11.416H115.063z"/>
</g>
<g opacity="0.5">
	<path fill="#FFFFFF" d="M100.546,28.406c39.478,0,71.595,32.117,71.595,71.594s-32.117,71.594-71.595,71.594
		S28.952,139.477,28.952,100S61.068,28.406,100.546,28.406 M100.546,26.406c-40.646,0-73.594,32.947-73.594,73.594
		s32.947,73.594,73.594,73.594s73.595-32.947,73.595-73.594S141.192,26.406,100.546,26.406L100.546,26.406z"/>
</g>
<g opacity="0.5">
	<path d="M100.546,27.406c40.029,0,72.595,32.565,72.595,72.594s-32.565,72.594-72.595,72.594
		c-40.028,0-72.594-32.565-72.594-72.594S60.518,27.406,100.546,27.406 M100.546,26.406c-40.646,0-73.594,32.947-73.594,73.594
		s32.947,73.594,73.594,73.594s73.595-32.947,73.595-73.594S141.192,26.406,100.546,26.406L100.546,26.406z"/>
</g>
<g>
	<path fill="#FBAA19" d="M96.845,128.182H67.361c4.847,17,14.373,29.895,31.29,35.561c-2.381,2.137-5.585,6.57-7.145,9.445
		c-15.768-6.158-25.131-17.492-31.126-33.344c-4.517,13.469-13.386,25.543-31.288,33.426c-1.479-2.793-4.436-6.406-7.229-8.623
		c20.039-8.131,27.76-21.434,30.634-36.465H23.425V118h30.469c0.574-7.311,0.492-14.783,0.574-22.174l13.059,0.82
		c-0.165,0.904-0.904,1.48-2.299,1.725c-0.083,6.324-0.166,12.977-0.74,19.629h32.357V128.182z"/>
	<path fill="#FBAA19" d="M179.225,142.965v9.033h-31.945v10.76c0,9.033-4.271,10.594-21.352,10.594
		c-0.575-2.791-2.464-6.898-3.943-9.527c3.368,0.166,7.063,0.248,9.691,0.248c5.091,0,5.501,0,5.501-1.643v-10.432h-31.78v-9.033
		h31.78v-5.666l4.847,0.246c2.134-1.395,4.188-3.039,6.078-4.764h-28.005v-8.541h37.284l1.56-0.492l7.473,4.434
		c-0.327,0.576-1.067,0.988-1.807,1.15c-4.106,4.354-10.265,9.691-16.67,13.633H179.225z M116.153,117.67v11.418h-9.28v-20.205
		h10.842c-1.479-2.791-3.696-5.992-5.75-8.539l8.377-3.697c3.039,3.367,6.488,7.969,7.885,11.252l-2.136,0.984h11.991
		c-1.315-3.201-3.369-7.225-5.339-10.348l8.705-3.201c2.709,3.859,5.666,8.951,6.733,12.482l-2.71,1.066h10.677
		c2.792-3.859,5.666-8.705,7.474-12.564c11.004,3.943,11.251,4.025,11.496,4.189c-0.492,0.738-1.395,0.902-2.382,0.82
		c-1.395,2.299-3.366,5.012-5.418,7.555h11.004v20.205h-9.692V117.67H116.153z"/>
</g>
<g>
	<path fill="#FED600" d="M95.755,125.9H66.272c4.846,17,14.373,29.895,31.29,35.561c-2.382,2.137-5.585,6.57-7.146,9.443
		c-15.768-6.158-25.13-17.492-31.125-33.342c-4.517,13.469-13.387,25.543-31.289,33.426c-1.479-2.793-4.436-6.406-7.228-8.623
		c20.039-8.131,27.759-21.434,30.634-36.465H22.335v-10.182h30.469c0.574-7.311,0.492-14.783,0.574-22.174l13.059,0.82
		c-0.164,0.904-0.904,1.479-2.299,1.725c-0.082,6.322-0.165,12.977-0.74,19.629h32.357V125.9z"/>
	<path fill="#FED600" d="M178.135,140.684v9.033h-31.945v10.76c0,9.033-4.271,10.594-21.352,10.594
		c-0.574-2.791-2.464-6.898-3.943-9.527c3.369,0.164,7.063,0.248,9.692,0.248c5.091,0,5.501,0,5.501-1.643v-10.432h-31.781v-9.033
		h31.781v-5.666l4.846,0.246c2.135-1.395,4.188-3.039,6.078-4.764h-28.004v-8.541h37.283l1.56-0.492l7.474,4.434
		c-0.328,0.576-1.067,0.988-1.808,1.15c-4.105,4.354-10.265,9.691-16.67,13.633H178.135z M115.063,115.389v11.416h-9.279v-20.203
		h10.842c-1.479-2.791-3.696-5.994-5.751-8.541l8.378-3.695c3.039,3.367,6.487,7.967,7.885,11.252l-2.137,0.984h11.991
		c-1.314-3.201-3.369-7.225-5.339-10.348l8.705-3.201c2.71,3.859,5.666,8.951,6.733,12.482l-2.709,1.066h10.677
		c2.791-3.859,5.666-8.705,7.473-12.564c11.004,3.941,11.252,4.023,11.497,4.189c-0.493,0.736-1.396,0.902-2.382,0.82
		c-1.396,2.299-3.367,5.01-5.419,7.555h11.004v20.203h-9.691v-11.416H115.063z"/>
</g>
</svg>
