<?xml version="1.0" encoding="utf-8"?>
<!-- Generator: Adobe Illustrator 16.0.0, SVG Export Plug-In . SVG Version: 6.00 Build 0)  -->
<!DOCTYPE svg PUBLIC "-//W3C//DTD SVG 1.1//EN" "http://www.w3.org/Graphics/SVG/1.1/DTD/svg11.dtd">
<svg version="1.1" id="Layer_1" xmlns="http://www.w3.org/2000/svg" xmlns:xlink="http://www.w3.org/1999/xlink" x="0px" y="0px"
	 width="200px" height="200px" viewBox="0 0 200 200" enable-background="new 0 0 200 200" xml:space="preserve">
<path fill="#382823" d="M164.333,118.685c0,6.744-5.467,12.211-12.21,12.211H41.418c-6.744,0-12.211-5.467-12.211-12.211V60.078
	c0-6.742,5.467-12.209,12.211-12.209h110.705c6.743,0,12.21,5.467,12.21,12.209V118.685z"/>
<rect x="34.59" y="54.584" fill="#FFFFFF" width="124.36" height="69.596"/>
<path fill="#382823" d="M179.808,132.772l-0.018,4.27c0,2.351-1.902,4.271-4.271,4.271H18.022c-2.368,0-4.271-1.92-4.271-4.271
	v-4.27H179.808z"/>
<path fill="#FFFFFF" d="M109.654,132.772v0.214c0,0.916-0.826,1.67-1.866,1.67H85.754c-1.04,0-1.865-0.754-1.865-1.67v-0.214
	H109.654z"/>
<path fill="#382823" d="M186.248,77.533v67.062c0,4.159-3.376,7.536-7.534,7.536h-28.762c-4.159,0-7.534-3.377-7.534-7.536V77.533
	c0-4.16,3.375-7.534,7.534-7.534h28.762C182.872,69.999,186.248,73.373,186.248,77.533z"/>
<rect x="145.937" y="78.038" fill="#FFFFFF" width="36.794" height="66.052"/>
<circle fill="#FFFFFF" cx="164.338" cy="147.86" r="3.014"/>
<path fill="#FFFFFF" d="M171.934,73.952c0,0.413-0.269,0.75-0.6,0.75H157.34c-0.33,0-0.598-0.337-0.598-0.75l0,0
	c0-0.415,0.268-0.752,0.598-0.752h13.994C171.665,73.2,171.934,73.537,171.934,73.952L171.934,73.952z"/>
</svg>
