<?xml version="1.0" ?><!DOCTYPE svg  PUBLIC '-//W3C//DTD SVG 1.0//EN'  'http://www.w3.org/TR/2001/REC-SVG-20010904/DTD/svg10.dtd'><svg enable-background="new 0 0 91.8 92.6" id="Layer_1" version="1.0" viewBox="0 0 91.8 92.6" xml:space="preserve" xmlns="http://www.w3.org/2000/svg" xmlns:xlink="http://www.w3.org/1999/xlink"><path d="M46.4,3.6c-23.5,0-42.5,19-42.5,42.5c0,23.5,19,42.5,42.5,42.5c23.5,0,42.5-19,42.5-42.5  C89,22.7,69.9,3.6,46.4,3.6z M20.3,46.7c2.2,1.5,4.8,3.1,7.8,4.9c3.1,1.9,5.5,3.3,7.4,4.2c0.4,0.2,0.6,0.5,0.5,1.1  c-0.1,0.5-0.3,1-0.7,1.6c-0.4,0.5-0.8,0.9-1.3,1.1c-0.6,0.3-1.1,0.3-1.4,0c-1.4-1.1-4.2-3-8.5-5.9c-4.5-3-7.7-5-9.7-6.1  c-0.7-0.4-1.1-0.9-1.1-1.4c0-0.5,0.3-1,1.1-1.4c3.4-2.1,6.6-4.1,9.7-6.1c4.5-2.9,7.4-4.8,8.5-5.7c0.4-0.4,0.9-0.4,1.4-0.2  c0.5,0.2,0.9,0.6,1.3,1.1c0.4,0.5,0.6,1,0.7,1.6c0.1,0.6-0.1,1-0.5,1.2c-2.1,1.1-4.5,2.4-7.4,4.1c-3.2,1.9-5.8,3.5-7.8,4.8  c-0.3,0.2-0.5,0.4-0.5,0.6S20,46.4,20.3,46.7z M78.6,47.6c-2,1.1-5.3,3.1-9.7,6.1c-4.3,2.9-7.1,4.8-8.5,5.9c-0.4,0.3-0.9,0.3-1.5,0  c-0.5-0.2-0.9-0.6-1.4-1.1c-0.4-0.5-0.6-1.1-0.7-1.6c-0.1-0.5,0.1-0.9,0.6-1.1c1.8-1,4.3-2.4,7.3-4.2c3-1.8,5.6-3.5,7.8-4.9  c0.3-0.2,0.5-0.4,0.5-0.6s-0.2-0.4-0.5-0.6c-2-1.3-4.6-2.9-7.8-4.8c-2.8-1.6-5.2-3-7.3-4.1c-0.4-0.2-0.6-0.6-0.6-1.2  c0.1-0.5,0.3-1,0.7-1.6c0.4-0.5,0.9-0.9,1.4-1.1c0.5-0.2,1-0.2,1.5,0.2c1.1,0.9,3.9,2.8,8.5,5.7c3.3,2.1,6.6,4.2,9.7,6.1  c0.7,0.4,1.1,0.9,1.1,1.4S79.4,47.2,78.6,47.6z" fill="#1E1E1E"/></svg>