<?xml version="1.0" encoding="utf-8"?>
<!-- Generator: Adobe Illustrator 16.0.0, SVG Export Plug-In . SVG Version: 6.00 Build 0)  -->
<!DOCTYPE svg PUBLIC "-//W3C//DTD SVG 1.1//EN" "http://www.w3.org/Graphics/SVG/1.1/DTD/svg11.dtd">
<svg version="1.1" id="Layer_1" xmlns="http://www.w3.org/2000/svg" xmlns:xlink="http://www.w3.org/1999/xlink" x="0px" y="0px"
	 width="200px" height="200px" viewBox="0 0 200 200" enable-background="new 0 0 200 200" xml:space="preserve">
<g>
	<path fill="#382823" d="M69.547,122.586c0,1.008-0.058,1.842-0.143,2.445c-0.086,0.605-0.23,1.096-0.404,1.439
		c-0.172,0.318-0.346,0.547-0.545,0.635c-0.203,0.115-0.405,0.145-0.635,0.145c-0.918,0-2.127-0.232-3.625-0.748
		c-1.494-0.488-3.107-1.238-4.863-2.158c-1.727-0.949-3.48-2.104-5.296-3.453c-1.813-1.354-3.482-2.906-5.035-4.664
		c-1.267,0.576-2.849,1.096-4.661,1.527c-1.843,0.428-3.885,0.631-6.131,0.631c-4.229,0-7.914-0.516-11.049-1.613
		c-3.167-1.061-5.785-2.73-7.884-5.004c-2.103-2.273-3.685-5.15-4.722-8.693c-1.066-3.508-1.582-7.684-1.582-12.516
		c0-4.404,0.576-8.346,1.669-11.885c1.121-3.51,2.79-6.475,5.009-8.92c2.213-2.477,4.948-4.346,8.199-5.67
		c3.279-1.295,7.051-1.957,11.367-1.957c4.059,0,7.654,0.547,10.792,1.641c3.108,1.064,5.757,2.762,7.886,5.006
		c2.158,2.246,3.77,5.094,4.861,8.549c1.124,3.451,1.67,7.51,1.67,12.23c0,2.416-0.172,4.719-0.49,6.85
		c-0.316,2.158-0.773,4.143-1.41,5.953c-0.604,1.814-1.352,3.482-2.243,5.01c-0.921,1.494-1.929,2.82-3.079,3.969
		c1.727,1.527,3.279,2.676,4.632,3.455c1.327,0.775,2.448,1.379,3.369,1.756c0.919,0.402,1.638,0.688,2.185,0.863
		c0.548,0.172,0.979,0.43,1.266,0.719c0.318,0.287,0.548,0.803,0.693,1.523C69.489,120.342,69.547,121.352,69.547,122.586z"/>
	<path fill="#382823" d="M118.901,97.186c0,3.332-0.489,6.318-1.469,8.947c-0.981,2.631-2.423,4.855-4.326,6.678
		c-1.905,1.82-4.256,3.209-7.056,4.158c-2.803,0.951-6.021,1.428-9.66,1.428c-3.42,0-6.485-0.426-9.201-1.283
		c-2.715-0.854-5.014-2.145-6.887-3.881c-1.877-1.736-3.311-3.9-4.305-6.492c-0.996-2.586-1.492-5.621-1.492-9.094V64.592
		c0-0.275,0.084-0.527,0.252-0.752c0.17-0.225,0.471-0.404,0.902-0.547c0.437-0.139,1.004-0.252,1.703-0.336
		c0.699-0.086,1.596-0.129,2.686-0.129c1.066,0,1.949,0.043,2.648,0.129c0.699,0.084,1.259,0.197,1.681,0.336
		c0.42,0.143,0.719,0.322,0.901,0.547c0.184,0.225,0.273,0.477,0.273,0.752v32.094c0,2.152,0.268,4.023,0.798,5.604
		c0.53,1.584,1.295,2.893,2.291,3.928c0.991,1.035,2.183,1.816,3.569,2.334c1.384,0.516,2.932,0.773,4.643,0.773
		c1.733,0,3.286-0.262,4.661-0.797c1.372-0.533,2.532-1.311,3.484-2.332c0.952-1.023,1.686-2.281,2.207-3.777
		c0.516-1.502,0.776-3.197,0.776-5.102V64.592c0-0.275,0.084-0.527,0.251-0.752c0.168-0.225,0.463-0.404,0.882-0.547
		c0.42-0.139,0.986-0.252,1.7-0.336c0.714-0.086,1.604-0.129,2.667-0.129c1.066,0,1.939,0.043,2.627,0.129
		c0.685,0.084,1.239,0.197,1.659,0.336c0.419,0.143,0.714,0.322,0.882,0.547c0.167,0.225,0.251,0.477,0.251,0.752V97.186z"/>
	<path fill="#382823" d="M141.794,115.918c0,0.283-0.089,0.533-0.272,0.76c-0.183,0.225-0.484,0.404-0.901,0.545
		c-0.422,0.141-0.981,0.254-1.681,0.338c-0.7,0.084-1.597,0.123-2.689,0.123c-1.065,0-1.953-0.039-2.667-0.123
		s-1.283-0.197-1.7-0.338c-0.422-0.141-0.724-0.32-0.902-0.545c-0.183-0.227-0.277-0.477-0.277-0.76V64.592
		c0-0.275,0.095-0.527,0.277-0.752c0.179-0.225,0.487-0.404,0.922-0.547c0.434-0.139,1.001-0.252,1.702-0.336
		c0.699-0.086,1.58-0.129,2.646-0.129c1.093,0,1.989,0.043,2.689,0.129c0.699,0.084,1.259,0.197,1.681,0.336
		c0.417,0.143,0.719,0.322,0.901,0.547c0.184,0.225,0.272,0.477,0.272,0.752V115.918z"/>
	<path fill="#382823" d="M187.027,113.063c0,0.816-0.034,1.5-0.104,2.057c-0.07,0.563-0.174,1.018-0.316,1.365
		c-0.14,0.35-0.313,0.598-0.525,0.738c-0.21,0.141-0.441,0.207-0.692,0.207h-32.047c-1.121,0-1.979-0.32-2.582-0.967
		c-0.604-0.641-0.904-1.58-0.904-2.809v-1.85c0-0.563,0.036-1.074,0.105-1.533c0.067-0.461,0.19-0.93,0.357-1.406
		c0.166-0.479,0.414-0.994,0.735-1.559c0.323-0.555,0.721-1.23,1.196-2.012l21.086-33.436H152.42c-0.338,0-0.625-0.078-0.861-0.23
		c-0.239-0.152-0.435-0.398-0.589-0.736c-0.154-0.336-0.268-0.781-0.335-1.344c-0.069-0.555-0.105-1.23-0.105-2.018
		c0-0.838,0.036-1.545,0.105-2.119c0.067-0.572,0.181-1.033,0.335-1.387c0.154-0.35,0.35-0.59,0.589-0.732
		c0.236-0.139,0.523-0.213,0.861-0.213h30.03c1.147,0,1.994,0.299,2.539,0.883c0.548,0.59,0.82,1.416,0.82,2.479v2.057
		c0,0.76-0.036,1.41-0.104,1.957c-0.07,0.545-0.195,1.078-0.379,1.596s-0.427,1.051-0.735,1.596
		c-0.307,0.545-0.702,1.197-1.175,1.951l-20.748,32.971h22.721c0.533,0,0.938,0.334,1.218,1.01
		C186.888,110.246,187.027,111.412,187.027,113.063z"/>
</g>
<polygon fill="#FFFFFF" points="54.113,85.689 35.865,103.938 23.335,91.41 29.6,85.143 35.865,91.406 47.846,79.424 "/>
<line fill="none" stroke="#382823" stroke-width="7" stroke-miterlimit="10" x1="12.973" y1="137.873" x2="187.027" y2="137.873"/>
</svg>
