<?xml version="1.0" encoding="utf-8"?>
<!-- Generator: Adobe Illustrator 16.0.0, SVG Export Plug-In . SVG Version: 6.00 Build 0)  -->
<!DOCTYPE svg PUBLIC "-//W3C//DTD SVG 1.1//EN" "http://www.w3.org/Graphics/SVG/1.1/DTD/svg11.dtd">
<svg version="1.1" id="Layer_1" xmlns="http://www.w3.org/2000/svg" xmlns:xlink="http://www.w3.org/1999/xlink" x="0px" y="0px"
	 width="200px" height="200px" viewBox="0 0 200 200" enable-background="new 0 0 200 200" xml:space="preserve">
<path fill="none" stroke="#382823" stroke-width="5" stroke-miterlimit="10" d="M98.009,61.897v47.166
	c0,11.156-9.053,20.209-20.209,20.209H30.634c-0.425,0-0.829-0.02-1.232-0.041l-18.977,18.977v-37.305h0.081
	c-0.062-0.605-0.081-1.213-0.081-1.84V61.897c0-11.156,9.055-20.209,20.209-20.209H77.8C88.956,41.688,98.009,50.741,98.009,61.897z
	"/>
<g>
	<path fill="#382823" d="M59.661,65.532c0.721-1.029,1.08-2.229,1.08-3.557c0-1.799-0.644-3.334-1.91-4.588
		c-1.287-1.236-2.82-1.873-4.618-1.873s-3.327,0.637-4.599,1.891c-1.287,1.273-1.912,2.791-1.912,4.57
		c0,1.404,0.381,2.641,1.193,3.707l-18.787,47.695h10.443l4.011-10.955H64.07l4.257,10.955h10.709L59.661,65.532z M52.11,59.895
		c0.589-0.561,1.287-0.859,2.103-0.859c0.833,0,1.512,0.299,2.1,0.859c0.568,0.582,0.868,1.256,0.868,2.08
		c0,0.805-0.3,1.498-0.868,2.078c-0.588,0.563-1.267,0.842-2.1,0.842c-0.815,0-1.514-0.279-2.103-0.842
		c-0.566-0.58-0.85-1.273-0.85-2.078C51.261,61.151,51.544,60.477,52.11,59.895z M47.592,94.294l6.581-17.901l6.738,17.901H47.592z"
		/>
</g>
<path fill="#382823" d="M152.269,158.313v-0.082c-0.626,0.061-1.231,0.082-1.859,0.082h-47.147
	c-11.153,0-20.208-9.035-20.208-20.209V90.957c0-11.155,9.055-20.209,20.208-20.209h47.147c11.176,0,20.209,9.054,20.209,20.209
	v47.147c0,0.404-0.021,0.809-0.04,1.213l18.997,18.996H152.269z"/>
<g>
	<path fill="#FFFFFF" d="M143.336,103.51c-0.205,0.742-0.41,1.482-0.545,2.225c9.874,2.695,14.233,9.504,14.233,17.053
		c0,10.785-8.173,18.064-25.678,20.221c-0.544-1.75-2.245-4.988-3.538-6.807c12.258-1.348,20.296-5.393,20.296-13.211
		c0-2.225-0.75-7.482-8.105-9.842c-2.998,6.742-7.561,13.01-12.873,17.525c0.274,0.877,0.613,1.617,0.953,2.291l-7.014,4.449
		c-0.342-0.674-0.682-1.414-0.953-2.223c-3.406,1.885-7.152,3.1-10.967,3.1c-5.992,0-9.943-3.775-9.943-10.043
		c0-9.303,7.22-16.648,16.89-20.559c-0.136-2.898-0.136-5.865-0.136-8.965c-5.107,0.136-10.624,0.271-13.349,0.202l-0.407-7.886
		c3.132,0.067,8.852,0.067,13.892,0.067c0.139-2.898,0.203-6.269,0.342-9.1l10.692,0.81c-0.137,0.674-0.681,1.214-1.84,1.348
		c-0.205,1.954-0.339,4.516-0.544,6.673c7.424-0.337,16.753-1.213,24.315-2.83l0.748,8.155c-7.492,1.348-17.3,2.022-25.473,2.291
		c-0.066,2.36-0.136,4.651-0.136,6.875c2.859-0.674,7.016-1.078,10.217-0.877c0.271-1.01,0.476-2.021,0.545-3.033L143.336,103.51z
		 M118.067,127.775c-0.75-3.572-1.226-7.752-1.567-12.336c-5.379,2.631-9.056,6.742-9.056,11.258c0,3.842,2.929,3.707,3.813,3.639
		C113.366,130.27,115.686,129.326,118.067,127.775z M131.824,111.801c-0.953-0.135-4.493,0.135-7.558,0.943
		c0.205,3.371,0.408,6.471,0.884,9.168C127.809,119.148,130.123,115.643,131.824,111.801z"/>
</g>
<g>
	<path fill="#FFFFFF" d="M150.409,70.748c11.176,0,20.209,9.054,20.209,20.209v47.147c0,0.404-0.021,0.809-0.04,1.213l18.997,18.994
		h-37.307v-0.078c-0.626,0.059-1.231,0.078-1.859,0.078h-47.147c-11.153,0-20.208-9.033-20.208-20.207V90.957
		c0-11.155,9.055-20.209,20.208-20.209H150.409 M150.409,67.748h-47.147c-12.797,0-23.208,10.411-23.208,23.209v47.147
		c0,12.797,10.411,23.207,23.208,23.207h47.147h1.859h37.307h7.243l-5.122-5.121l-18.078-18.076c0-0.004,0-0.008,0-0.01V90.957
		C173.618,78.159,163.207,67.748,150.409,67.748L150.409,67.748z"/>
</g>
</svg>
