<svg xmlns="http://www.w3.org/2000/svg" xmlns:xlink="http://www.w3.org/1999/xlink" width="400" height="400" viewBox="-7 -85 534 540">
    <!-- Kanji SVG from http://kanji.japan-diary.com/ © 2006 Kanji SVG project -->
    <path id="1" style="fill:black" d="M48,362 Q180,334 266,252 L256,234 Q172,302 70,320 L54,282 Q166,260 236,204 L222,190 Q150,232 56,252 L40,216 Q152,194 218,152 L104,152 L104,88 Q84,106 50,124 L30,84 Q124,34 172,-48 L218,-40 Q226,-32 212,-30 Q206,-22 200,-16 L312,-16 L320,-26 L356,-4 Q364,4 350,6 L312,50 L434,50 L434,152 L286,152 L252,172 Q276,188 292,212 Q344,190 400,154 L432,188 Q432,198 420,194 Q376,218 330,240 Q394,294 490,340 L468,384 Q374,338 316,274 Q324,302 324,322 Q324,404 278,414 Q258,418 218,408 L218,366 Q240,374 258,374 Q282,374 282,322 Q282,302 278,292 Q192,370 66,406 L48,362 Z"/>
    <path id="2" style="fill:white" d="M246,82 L138,82 L138,120 L246,120 Z"/>
    <path id="3" style="fill:white" d="M400,82 L280,82 L280,120 L400,120 Z"/>
    <path id="4" style="fill:white" d="M294,16 L176,16 Q160,34 144,50 L264,50 Z"/>
</svg>